# xmcd CD database file generated by LOLA_Freedb v0.9beta0
#
# Track frame offsets:
#      150
#      17030
#      25201
#      44883
#      56508
#      71597
#      88802
#      101386
#      114286
#      128670
#
# Disc length: 1892 seconds
#
# Revision: 0
# Processed by: cddbd v1.5.2PL0 Copyright (c) Steve Scherf et al.
# Submitted via: LOLA_Freedb v0.9beta0
#
DISCID=8107620a
DTITLE=The Edwards - Happy Forever
DYEAR=1980
DGENRE=
TTITLE0=The Edwards - Happy Forever
TTITLE1=The Edwards - Give The World A Smile
TTITLE2=The Edwards - Praying In The Spirit
TTITLE3=The Edwards - Take My Hand
TTITLE4=The Edwards - Little Flowers
TTITLE5=The Edwards - What a Friend, Sweet Spirit
TTITLE6=The Edwards - The Story of Christ
TTITLE7=The Edwards - Sweetest Hallelujah
TTITLE8=The Edwards - Rise And Be Healed
TTITLE9=The Edwards - Walking Hand in Hand
EXTD=
EXTT0=
EXTT1=
EXTT2=
EXTT3=
EXTT4=
EXTT5=
EXTT6=
EXTT7=
EXTT8=
EXTT9=
PLAYORDER=
